<?xml version="1.0" encoding="UTF-8" standalone="no"?>
<svg
   version="1.1"
   id="Layer_1"
   x="0px"
   y="0px"
   width="100%"
   viewBox="0 0 1024 1024"
   enable-background="new 0 0 1024 1024"
   xml:space="preserve"
   sodipodi:docname="regYOUlator.svg"
   inkscape:version="1.4 (86a8ad7, 2024-10-11)"
   inkscape:export-filename="regYOUlator.svg"
   inkscape:export-xdpi="96"
   inkscape:export-ydpi="96"
   xmlns:inkscape="http://www.inkscape.org/namespaces/inkscape"
   xmlns:sodipodi="http://sodipodi.sourceforge.net/DTD/sodipodi-0.dtd"
   xmlns="http://www.w3.org/2000/svg"
   xmlns:svg="http://www.w3.org/2000/svg"><defs
   id="defs12" /><sodipodi:namedview
   id="namedview12"
   pagecolor="#ffffff"
   bordercolor="#000000"
   borderopacity="0.25"
   inkscape:showpageshadow="2"
   inkscape:pageopacity="0.0"
   inkscape:pagecheckerboard="0"
   inkscape:deskcolor="#d1d1d1"
   inkscape:zoom="100.375"
   inkscape:cx="1.6239104"
   inkscape:cy="3.252802"
   inkscape:window-width="1920"
   inkscape:window-height="1012"
   inkscape:window-x="-8"
   inkscape:window-y="-8"
   inkscape:window-maximized="1"
   inkscape:current-layer="Layer_1" />

<ellipse
   style="fill:#92bebe;fill-opacity:1;stroke:#000000;stroke-width:25.5302;stroke-dasharray:none;stroke-opacity:1"
   id="path13"
   cx="511.96643"
   cy="511.97705"
   rx="499.19098"
   ry="499.19241" /><g
   id="g14"
   inkscape:label="fills"
   transform="matrix(1.7026484,0,0,1.701371,-362.49736,-361.21312)"><ellipse
     style="fill:#ffffff;fill-opacity:1;fill-rule:nonzero;stroke:none;stroke-width:27.4967;stroke-dasharray:none;stroke-opacity:1"
     id="path14"
     ry="65.354919"
     rx="101.37982"
     cy="587.5567"
     cx="468.64261" /><ellipse
     style="fill:#ffffff;fill-opacity:1;fill-rule:nonzero;stroke:none;stroke-width:27.4967;stroke-dasharray:none;stroke-opacity:1"
     id="path14-1"
     ry="65.354919"
     rx="101.37982"
     cy="588.71729"
     cx="555.68616" /><circle
     style="fill:#ffffff;fill-opacity:1;fill-rule:nonzero;stroke:none;stroke-width:15;stroke-dasharray:none;stroke-opacity:1"
     id="path15"
     cx="380.65256"
     cy="435.48691"
     r="55.471981" /><circle
     style="fill:#ffffff;fill-opacity:1;fill-rule:nonzero;stroke:none;stroke-width:15;stroke-dasharray:none;stroke-opacity:1"
     id="path15-1"
     cx="646.07971"
     cy="435.74719"
     r="55.471981" /><path
     style="fill:#ff7777;fill-opacity:1;fill-rule:nonzero;stroke:none;stroke-width:15;stroke-dasharray:none;stroke-opacity:1"
     id="path16"
     sodipodi:type="arc"
     sodipodi:cx="513.27521"
     sodipodi:cy="691.16809"
     sodipodi:rx="55.471981"
     sodipodi:ry="36.981319"
     sodipodi:start="0"
     sodipodi:end="3.2771204"
     sodipodi:open="true"
     sodipodi:arc-type="arc"
     d="m 568.74719,691.16809 a 55.471981,36.981319 0 0 1 -29.93381,32.82914 55.471981,36.981319 0 0 1 -57.49564,-2.60141 55.471981,36.981319 0 0 1 -23.00584,-35.22439" /><ellipse
     style="fill:#ff7777;fill-opacity:1;fill-rule:nonzero;stroke:none;stroke-width:15;stroke-dasharray:none;stroke-opacity:1"
     id="path17"
     cx="516.68286"
     cy="685.92352"
     rx="22.655596"
     ry="5.8047919" /></g><path
   fill="#000000"
   opacity="1"
   stroke="none"
   d="m 651.92904,754.98576 c -24.21267,5.32987 -47.94207,9.19731 -72.10307,8.78682 -14.10931,-0.23977 -28.18133,-1.78153 -42.09774,-4.27202 -9.8663,-1.76564 -10.9584,-1.03625 -11.16231,8.68786 -0.27996,13.3471 0.66812,14.66145 12.77787,19.97627 26.96512,11.83452 52.81681,10.11735 77.60374,-5.99977 2.12457,-1.38153 4.33694,-2.90929 6.72776,-3.54158 4.69954,-1.24281 9.06621,-0.36065 12.0341,3.98852 3.07908,4.51211 1.82693,8.58775 -1.50915,12.34118 -4.22762,4.75655 -9.45103,8.24922 -15.30045,10.48101 -6.63518,2.53151 -9.92377,6.70696 -11.98909,13.77391 -19.87135,67.99617 -98.50577,94.79878 -155.80269,53.04043 -18.91364,-13.78439 -31.36264,-32.62772 -36.9666,-55.47224 -1.2453,-5.07639 -3.70267,-7.70207 -8.11351,-9.80593 -5.3479,-2.55072 -10.64441,-5.4087 -15.44688,-8.85234 -6.35039,-4.55364 -8.03749,-11.6174 -4.18658,-16.16023 4.73912,-5.59072 10.71076,-4.98438 16.05997,-1.33096 12.93747,8.83614 26.79493,14.35189 42.67127,14.91929 17.25245,0.61683 33.10562,-3.25644 47.3932,-12.98136 5.50254,-3.74522 8.67811,-15.6759 5.45219,-21.26434 -3.02593,-5.24212 -8.25594,-2.61363 -12.32228,-1.98757 -17.34314,2.66972 -34.73438,5.32385 -52.28141,4.45106 -46.73902,-2.32455 -91.47521,-11.85728 -130.8145,-39.04462 -20.50802,-14.17319 -37.2618,-31.88036 -45.34866,-55.78647 -12.3043,-36.37366 -2.21218,-68.14861 23.74188,-94.98467 29.53905,-30.54274 67.29187,-44.98374 108.24315,-52.67916 34.91099,-6.56051 69.84522,-7.03227 104.26275,1.58829 15.48111,3.87761 29.76444,0.52774 44.27093,-2.06452 31.28544,-5.5904 62.28623,-5.22716 93.52345,0.35214 36.33591,6.49002 69.87115,19.12423 98.72648,42.5563 23.99722,19.48704 39.22982,44.39929 39.84108,75.67103 0.50195,25.66843 -10.53991,47.66974 -28.30403,66.22719 -24.53638,25.63188 -55.59567,39.43019 -89.58087,49.38648 m 78.88237,-68.81081 c 26.30677,-35.47946 23.90141,-69.35912 -7.70732,-100.22337 -20.15276,-19.67812 -44.99111,-30.87681 -71.80524,-38.68937 -36.09295,-10.51612 -72.61904,-10.36752 -109.41521,-6.11834 -13.19043,1.52308 -26.47815,5.70348 -39.59647,2.87074 -28.02879,-6.0523 -56.34992,-6.35978 -84.57601,-4.79537 -40.67355,2.25412 -78.55956,14.10661 -111.01935,39.67546 -19.16779,15.09872 -32.53983,34.33479 -33.32354,59.5724 -0.86032,27.70646 14.44745,47.58146 34.93094,63.77668 30.03194,23.74475 65.18263,34.89005 102.7763,38.19965 22.83741,2.0104 45.84676,2.08902 68.68036,-1.45765 15.5663,-2.4179 18.70549,-5.92458 18.70399,-21.36704 -0.002,-25.22378 -1.12807,-50.51465 0.37422,-75.64871 1.08156,-18.09431 -2.08887,-32.19395 -19.90116,-40.02791 -0.50002,-0.21993 -0.85272,-0.75193 -1.32816,-1.05338 -8.42206,-5.33848 -7.54761,-13.66849 -5.76395,-21.33796 1.78662,-7.68193 8.94893,-8.80956 15.68454,-8.87913 16.44795,-0.16978 32.89913,-0.11725 49.34844,-0.0285 7.16705,0.0387 14.28004,1.57021 16.4809,9.29969 2.14244,7.52471 1.82434,15.27735 -5.76359,20.56475 -4.87423,3.39629 -9.64162,6.94525 -14.49963,10.36513 -3.57771,2.51852 -6.44479,5.17275 -6.42682,10.19898 0.12512,35.14249 0.10046,70.28582 0.0336,105.42851 -0.008,4.21719 1.53616,7.20185 5.54224,8.52369 5.8968,1.9456 11.79082,4.90255 17.8195,5.27544 28.25405,1.74801 56.58,3.16183 84.54983,-3.15071 36.2612,-8.18379 69.88664,-21.44294 96.20162,-50.97373 M 568.07702,846.82404 c 7.68821,-8.34476 14.48684,-17.17591 16.54729,-28.57449 -1.14127,-0.69295 -1.58272,-1.14602 -2.08487,-1.22805 -1.11196,-0.18173 -2.25957,-0.2862 -3.38368,-0.23241 -23.16637,1.10842 -44.38794,-4.70732 -63.39018,-18.05339 -3.75229,-2.63524 -6.58921,-1.75008 -9.97226,0.51194 -18.96981,12.68375 -39.80465,18.82703 -62.72415,17.50884 -1.86764,-0.10747 -4.03293,-0.60904 -6.02745,2.32537 8.21998,23.99085 24.92742,40.56571 49.32109,47.82043 30.09092,8.94901 57.7968,3.51987 81.71421,-20.07824 z"
   id="path2"
   style="stroke-width:1.70201" />
<path
   fill="#000000"
   opacity="1"
   stroke="none"
   d="m 217.77519,291.68335 c 46.75398,-34.94945 110.32223,-27.64914 147.69166,11.59936 39.08318,41.04838 40.59331,106.80201 3.31592,149.33513 -36.105,41.19559 -97.96983,52.51321 -146.89245,18.37733 -57.12149,-39.85662 -60.59112,-114.76564 -22.72376,-161.14991 5.42542,-6.64563 11.38307,-12.57446 18.60863,-18.16191 m 152.63198,60.08578 c -15.8027,-40.33746 -46.42409,-61.52869 -88.66565,-61.0292 -49.67651,0.58739 -91.63192,46.16771 -85.57512,100.33037 5.05322,45.18748 48.9487,84.11865 100.01106,77.71577 54.81619,-6.87366 91.72961,-63.11626 74.22971,-117.01694 z"
   id="path3"
   style="stroke-width:1.70201" />
<path
   fill="#000000"
   opacity="1"
   stroke="none"
   d="m 641.06093,435.84224 c -27.82788,-51.54139 -16.03559,-109.292 29.05934,-144.42401 64.83323,-50.5096 164.13784,-10.77967 176.24687,70.51314 9.31593,62.54096 -33.96225,121.11437 -95.18505,127.64197 -47.31002,5.04419 -83.98669,-13.23105 -110.12116,-53.7311 M 741.4089,290.71325 c -5.38158,0.12221 -10.831,-0.26335 -16.13401,0.44548 -50.80728,6.79215 -84.59266,51.6617 -76.90455,103.85664 5.9468,40.37299 44.58551,80.11854 99.95038,73.77583 43.8276,-5.02094 84.46378,-47.66305 77.23346,-100.2053 -5.88986,-42.80182 -39.46729,-74.96904 -84.14528,-77.87265 z"
   id="path4"
   style="stroke-width:1.70201" />
<path
   fill="#000000"
   opacity="1"
   stroke="none"
   d="m 96.775539,518.96372 c 20.264161,-0.63458 39.432511,2.97149 58.311451,7.64477 28.51105,7.0575 55.29098,18.42899 79.67489,35.03928 1.86543,1.27071 3.78393,2.53584 5.38661,4.10129 1.96582,1.92038 2.78685,4.35685 1.0988,6.90237 -1.67448,2.52526 -4.22855,2.81706 -6.7697,1.73304 -2.06019,-0.87883 -3.94381,-2.20866 -5.82817,-3.45561 C 190.45331,545.654 148.07754,532.98478 102.74515,529.27768 94.092704,528.5703 92.431208,526.20152 96.775539,518.96372 Z"
   id="path5"
   style="stroke-width:1.70201" />
<path
   fill="#000000"
   opacity="1"
   stroke="none"
   d="m 827.0072,541.44564 c 27.12796,-12.20888 54.9869,-19.07967 83.89711,-21.94066 3.92968,-0.3888 7.82663,-1.19411 11.761,-1.42391 3.87855,-0.22648 8.02231,0.59366 8.28761,5.23848 0.27685,4.84606 -3.99796,5.6735 -7.77757,5.83704 -18.45176,0.79834 -36.35504,4.62613 -54.17798,9.17738 -26.02565,6.64577 -50.15819,17.42814 -72.53704,32.21276 -0.70812,0.46781 -1.39151,0.97279 -2.09276,1.4512 -3.33985,2.27812 -7.22296,5.152 -10.36648,0.77665 -3.05166,-4.2474 0.47866,-7.37734 3.88842,-9.68361 9.61638,-6.50454 19.5312,-12.52248 30.00918,-17.562 2.80422,-1.34872 5.6764,-2.55611 9.10851,-4.08333 z"
   id="path6"
   style="stroke-width:1.70201" />
<path
   fill="#000000"
   opacity="1"
   stroke="none"
   d="m 173.75636,605.56492 c -18.91988,-4.27909 -37.34364,-6.64951 -56.04451,-6.72698 -2.54554,-0.0105 -5.09641,-0.0288 -7.63469,-0.19647 -3.85013,-0.25421 -7.88914,-0.92878 -7.55331,-5.9306 0.28672,-4.27077 3.90058,-4.82728 7.54365,-5.09373 11.36272,-0.83159 22.59912,0.86979 33.80773,1.97073 23.9388,2.35153 47.46245,7.06842 70.29269,14.85626 1.60438,0.54725 3.25024,1.00085 4.80012,1.67436 3.55137,1.54313 7.05851,3.62135 5.20632,8.14684 -1.62669,3.9744 -5.43884,3.52611 -8.81545,2.35113 -13.36585,-4.65085 -26.91622,-8.58381 -41.60255,-11.05154 z"
   id="path7"
   style="stroke-width:1.70201" />
<path
   fill="#000000"
   opacity="1"
   stroke="none"
   d="m 800.58549,613.34933 c -0.32818,-5.5275 3.4586,-6.52864 6.93219,-7.73457 26.01474,-9.03292 52.76588,-14.46809 80.24333,-16.35742 7.03569,-0.48381 14.0668,-1.5214 21.09427,-1.47314 4.84493,0.0332 12.77985,-2.65557 13.02645,5.08678 0.24641,7.7351 -7.7147,5.78897 -12.59268,5.81451 -27.88273,0.14621 -55.00882,5.18676 -81.86138,12.09113 -6.01082,1.5457 -11.88622,3.6235 -17.80807,5.50628 -3.4606,1.10023 -6.69869,1.55838 -9.03411,-2.93357 z"
   id="path8"
   style="stroke-width:1.70201" />
<path
   fill="#000000"
   opacity="1"
   stroke="none"
   d="m 128.97236,661.79708 c -4.19822,-0.61528 -5.55663,-2.73119 -5.0381,-6.08482 0.42987,-2.7801 2.60198,-3.45155 4.95611,-3.78665 3.07774,-0.43822 6.15351,-1.17291 9.23956,-1.22555 25.77442,-0.43936 51.5461,-0.55558 77.23319,2.15652 1.68114,0.17756 3.35069,0.54548 4.99888,0.93728 3.36518,0.80022 5.94893,2.60844 5.36151,6.41119 -0.58279,3.77315 -3.72302,4.85737 -7.04327,4.68168 -4.50302,-0.23822 -8.9917,-0.83543 -13.47252,-1.39119 -25.11324,-3.11468 -50.33087,-1.32525 -76.23536,-1.69846 z"
   id="path9"
   style="stroke-width:1.70201" />
<path
   fill="#000000"
   opacity="1"
   stroke="none"
   d="m 836.84637,651.23973 c 17.78813,-0.25795 34.78801,-0.4269 51.78789,-0.4215 2.79954,8.3e-4 5.62682,0.63449 8.38999,1.21776 2.42314,0.51133 4.1024,1.99723 4.03423,4.70516 -0.0766,3.04272 -1.86383,4.7986 -4.77581,4.90224 -5.6606,0.20134 -11.33233,0.18099 -16.99823,0.12627 -23.77929,-0.2297 -47.5642,-0.71061 -71.19282,2.86296 -3.94371,0.59638 -7.93398,0.0328 -8.73957,-4.52632 -0.88406,-5.0036 3.39625,-6.18327 7.07736,-6.53871 9.85456,-0.95142 19.74964,-1.48248 30.41696,-2.32786 z"
   id="path10"
   style="stroke-width:1.70201" />
<path
   fill="#000000"
   opacity="1"
   stroke="none"
   d="m 249.33363,326.57666 c 33.5066,-22.08017 72.23873,-19.13434 96.34689,7.53162 18.76748,20.75867 24.64897,45.09712 15.3215,71.68215 -8.90679,25.38582 -27.09855,41.33229 -53.80811,46.76349 -31.22865,6.35009 -61.34362,-8.27444 -76.9149,-37.14657 -14.07339,-26.09475 -8.81393,-60.77136 12.52353,-82.47692 1.98592,-2.02026 4.04238,-3.97128 6.53109,-6.35377 z"
   id="path11"
   style="stroke-width:1.70201" />
<path
   fill="#000000"
   opacity="1"
   stroke="none"
   d="m 660.18308,386.76729 c -1.96701,-36.81005 22.25312,-64.93767 52.67726,-72.82442 39.7992,-10.31707 79.02672,13.8631 88.0125,53.96697 8.78552,39.20999 -18.61679,78.10705 -58.28371,85.0362 -40.70852,7.11109 -81.1171,-25.0163 -82.40605,-66.17875 z"
   id="path12"
   inkscape:export-filename="regYOUlator.svg"
   inkscape:export-xdpi="39.91"
   inkscape:export-ydpi="39.91"
   style="stroke-width:1.70201" />
</svg>
